<svg version="1" xmlns="http://www.w3.org/2000/svg" width="760" height="760" viewBox="0 0 570.000000 570.000000"><path d="M180.4 70.4l-3.4 3.4V140l2.9 3.2c2.5 2.8 3.6 3.3 7.6 3.3 4 0 5.1-.5 7.6-3.3l2.9-3.2V73.8l-3.4-3.4c-2.6-2.6-4.2-3.4-7.1-3.4-2.9 0-4.5.8-7.1 3.4zM261.3 68c-1.3.5-3.2 2.4-4.3 4.2-1.9 3.1-2 5.1-2 34.6 0 34.4.2 35.7 6 38.7 5 2.6 9.6 1.6 13.2-2.9 1.6-1.9 1.8-5.3 1.8-35.6s-.2-33.7-1.8-35.6c-3.3-4.1-8-5.3-12.9-3.4zM339.5 68.2c-5.5 3-5.5 2.6-5.5 38.8 0 30.3.2 33.7 1.8 35.6 3.6 4.5 8.2 5.5 13.2 2.9 5.8-3 6-4.3 6-38.7 0-29.5-.1-31.5-2-34.6-2.9-4.8-8.9-6.6-13.5-4zM106.5 204.8c-3.2 1.1-5.1 2.6-6.4 4.9-.8 1.6-1.1 27.6-1.1 96.7 0 78.7.2 95.6 1.5 101.3 7.4 35.2 30.7 59.6 66.4 69.6 7.4 2.1 9.3 2.1 92.1 2.5 88.7.3 97.9 0 110.9-4 37.9-11.7 63.1-46.3 63.1-86.6v-6.9l11.3-.6c24.6-1.5 42.6-8.9 58.7-24.3 9.5-9.1 16.2-18.9 21.2-31 8.9-21.6 8.9-45.2 0-66.8-4.6-11.3-9.7-19-18.5-28.2-11.5-12.2-23.7-19.3-41.4-24.2l-9.8-2.7-173-.2c-95.2 0-173.9.2-175 .5zm305.2 109.4c-.3 96.3 0 91.5-5.6 104.1-6.5 15-21 29-36.6 35.4-11.8 4.9-10.5 4.8-104 4.8-82 0-88.4-.1-94.5-1.8-19.3-5.4-35.9-18.9-44.4-36.1-6.7-13.5-6.6-12.1-6.6-108.7V225h292.1l-.4 89.2zm50.9-85.7c11.7 3.9 18 7.9 27.4 17.4 6.9 6.9 9.4 10.3 12.7 17.1 5.4 11.2 6.7 17.2 6.7 30.5-.1 20.2-5.3 32.6-19.9 47-13.7 13.7-26 19-46.2 20.2l-10.3.6V224.7l10.8.6c7.9.4 13 1.3 18.8 3.2z"/></svg>